<svg width="42" height="42" viewBox="0 0 42 42" fill="none" xmlns="http://www.w3.org/2000/svg">
<path opacity="0.2" d="M19 26C19 26.7911 18.7654 27.5645 18.3259 28.2223C17.8864 28.8801 17.2616 29.3928 16.5307 29.6955C15.7998 29.9983 14.9956 30.0775 14.2196 29.9231C13.4437 29.7688 12.731 29.3878 12.1716 28.8284C11.6122 28.269 11.2312 27.5563 11.0769 26.7804C10.9225 26.0044 11.0017 25.2002 11.3045 24.4693C11.6072 23.7384 12.1199 23.1136 12.7777 22.6741C13.4355 22.2346 14.2089 22 15 22C16.0609 22 17.0783 22.4214 17.8284 23.1716C18.5786 23.9217 19 24.9391 19 26ZM15 9C14.2089 9 13.4355 9.2346 12.7777 9.67412C12.1199 10.1136 11.6072 10.7384 11.3045 11.4693C11.0017 12.2002 10.9225 13.0044 11.0769 13.7804C11.2312 14.5563 11.6122 15.269 12.1716 15.8284C12.731 16.3878 13.4437 16.7688 14.2196 16.9231C14.9956 17.0775 15.7998 16.9983 16.5307 16.6955C17.2616 16.3928 17.8864 15.8801 18.3259 15.2223C18.7654 14.5645 19 13.7911 19 13C19 11.9391 18.5786 10.9217 17.8284 10.1716C17.0783 9.42143 16.0609 9 15 9ZM27 22C26.2089 22 25.4355 22.2346 24.7777 22.6741C24.1199 23.1136 23.6072 23.7384 23.3045 24.4693C23.0017 25.2002 22.9225 26.0044 23.0769 26.7804C23.2312 27.5563 23.6122 28.269 24.1716 28.8284C24.731 29.3878 25.4437 29.7688 26.2196 29.9231C26.9956 30.0775 27.7998 29.9983 28.5307 29.6955C29.2616 29.3928 29.8864 28.8801 30.3259 28.2223C30.7654 27.5645 31 26.7911 31 26C31 24.9391 30.5786 23.9217 29.8284 23.1716C29.0783 22.4214 28.0609 22 27 22ZM27 17C27.7911 17 28.5645 16.7654 29.2223 16.3259C29.8801 15.8864 30.3928 15.2616 30.6955 14.5307C30.9983 13.7998 31.0775 12.9956 30.9231 12.2196C30.7688 11.4437 30.3878 10.731 29.8284 10.1716C29.269 9.61216 28.5563 9.2312 27.7804 9.07686C27.0044 8.92252 26.2002 9.00173 25.4693 9.30448C24.7384 9.60723 24.1136 10.1199 23.6741 10.7777C23.2346 11.4355 23 12.2089 23 13C23 14.0609 23.4214 15.0783 24.1716 15.8284C24.9217 16.5786 25.9391 17 27 17Z" fill="#BFB2A1"/>
<path d="M8.4 20.7999C8.50506 20.8787 8.62461 20.936 8.75182 20.9686C8.87903 21.0012 9.01142 21.0084 9.14142 20.9898C9.27142 20.9712 9.39649 20.9272 9.50949 20.8603C9.62249 20.7934 9.72121 20.7049 9.8 20.5999C10.4055 19.7926 11.1906 19.1374 12.0931 18.6861C12.9957 18.2348 13.9909 17.9999 15 17.9999C16.0091 17.9999 17.0043 18.2348 17.9069 18.6861C18.8094 19.1374 19.5945 19.7926 20.2 20.5999C20.3593 20.8118 20.5963 20.9519 20.8588 20.9891C21.1214 21.0264 21.388 20.9579 21.6 20.7986C21.6756 20.7424 21.7425 20.6754 21.7987 20.5999C22.4042 19.7926 23.1893 19.1374 24.0919 18.6861C24.9944 18.2348 25.9897 17.9999 26.9988 17.9999C28.0078 17.9999 29.0031 18.2348 29.9056 18.6861C30.8082 19.1374 31.5933 19.7926 32.1987 20.5999C32.358 20.812 32.5951 20.9522 32.8578 20.9896C33.1204 21.027 33.3872 20.9585 33.5994 20.7992C33.8115 20.6399 33.9518 20.4029 33.9891 20.1402C34.0265 19.8775 33.958 19.6108 33.7987 19.3986C32.9136 18.2119 31.7332 17.2776 30.375 16.6886C31.1196 16.0088 31.6413 15.1197 31.8716 14.1381C32.1019 13.1565 32.03 12.1282 31.6654 11.1881C31.3009 10.2481 30.6606 9.44023 29.8287 8.87058C28.9967 8.30092 28.012 7.99609 27.0037 7.99609C25.9955 7.99609 25.0108 8.30092 24.1788 8.87058C23.3469 9.44023 22.7066 10.2481 22.3421 11.1881C21.9775 12.1282 21.9056 13.1565 22.1359 14.1381C22.3662 15.1197 22.8879 16.0088 23.6325 16.6886C22.6518 17.1127 21.7609 17.7198 21.0075 18.4774C20.2541 17.7198 19.3632 17.1127 18.3825 16.6886C19.1271 16.0088 19.6488 15.1197 19.8791 14.1381C20.1094 13.1565 20.0375 12.1282 19.6729 11.1881C19.3084 10.2481 18.6681 9.44023 17.8362 8.87058C17.0042 8.30092 16.0195 7.99609 15.0112 7.99609C14.003 7.99609 13.0183 8.30092 12.1863 8.87058C11.3544 9.44023 10.7141 10.2481 10.3496 11.1881C9.98499 12.1282 9.91313 13.1565 10.1434 14.1381C10.3737 15.1197 10.8954 16.0088 11.64 16.6886C10.2758 17.2757 9.08963 18.2106 8.2 19.3999C8.12121 19.5049 8.06388 19.6245 8.03129 19.7517C7.99869 19.8789 7.99148 20.0113 8.01005 20.1413C8.02862 20.2713 8.07262 20.3964 8.13953 20.5094C8.20643 20.6224 8.29494 20.7211 8.4 20.7999ZM27 9.99986C27.5933 9.99986 28.1734 10.1758 28.6667 10.5055C29.1601 10.8351 29.5446 11.3036 29.7716 11.8518C29.9987 12.4 30.0581 13.0032 29.9424 13.5851C29.8266 14.1671 29.5409 14.7016 29.1213 15.1212C28.7018 15.5407 28.1672 15.8265 27.5853 15.9422C27.0033 16.058 26.4001 15.9986 25.8519 15.7715C25.3038 15.5444 24.8352 15.1599 24.5056 14.6666C24.1759 14.1732 24 13.5932 24 12.9999C24 12.2042 24.3161 11.4411 24.8787 10.8785C25.4413 10.3159 26.2044 9.99986 27 9.99986ZM15 9.99986C15.5933 9.99986 16.1734 10.1758 16.6667 10.5055C17.1601 10.8351 17.5446 11.3036 17.7716 11.8518C17.9987 12.4 18.0581 13.0032 17.9424 13.5851C17.8266 14.1671 17.5409 14.7016 17.1213 15.1212C16.7018 15.5407 16.1672 15.8265 15.5853 15.9422C15.0033 16.058 14.4001 15.9986 13.8519 15.7715C13.3038 15.5444 12.8352 15.1599 12.5056 14.6666C12.1759 14.1732 12 13.5932 12 12.9999C12 12.2042 12.3161 11.4411 12.8787 10.8785C13.4413 10.3159 14.2044 9.99986 15 9.99986ZM30.375 29.6886C31.1196 29.0088 31.6413 28.1197 31.8716 27.1381C32.1019 26.1565 32.03 25.1282 31.6654 24.1881C31.3009 23.2481 30.6606 22.4402 29.8287 21.8706C28.9967 21.3009 28.012 20.9961 27.0037 20.9961C25.9955 20.9961 25.0108 21.3009 24.1788 21.8706C23.3469 22.4402 22.7066 23.2481 22.3421 24.1881C21.9775 25.1282 21.9056 26.1565 22.1359 27.1381C22.3662 28.1197 22.8879 29.0088 23.6325 29.6886C22.6518 30.1127 21.7609 30.7198 21.0075 31.4774C20.2541 30.7198 19.3632 30.1127 18.3825 29.6886C19.1271 29.0088 19.6488 28.1197 19.8791 27.1381C20.1094 26.1565 20.0375 25.1282 19.6729 24.1881C19.3084 23.2481 18.6681 22.4402 17.8362 21.8706C17.0042 21.3009 16.0195 20.9961 15.0112 20.9961C14.003 20.9961 13.0183 21.3009 12.1863 21.8706C11.3544 22.4402 10.7141 23.2481 10.3496 24.1881C9.98499 25.1282 9.91313 26.1565 10.1434 27.1381C10.3737 28.1197 10.8954 29.0088 11.64 29.6886C10.2758 30.2757 9.08963 31.2106 8.2 32.3999C8.12121 32.5049 8.06388 32.6245 8.03129 32.7517C7.99869 32.8789 7.99148 33.0113 8.01005 33.1413C8.02862 33.2713 8.07262 33.3964 8.13953 33.5094C8.20643 33.6224 8.29494 33.7211 8.4 33.7999C8.50506 33.8787 8.62461 33.936 8.75182 33.9686C8.87903 34.0012 9.01142 34.0084 9.14142 33.9898C9.27142 33.9712 9.39649 33.9272 9.50949 33.8603C9.62249 33.7934 9.72121 33.7049 9.8 33.5999C10.4055 32.7926 11.1906 32.1374 12.0931 31.6861C12.9957 31.2348 13.9909 30.9999 15 30.9999C16.0091 30.9999 17.0043 31.2348 17.9069 31.6861C18.8094 32.1374 19.5945 32.7926 20.2 33.5999C20.3593 33.8118 20.5963 33.9519 20.8588 33.9891C21.1214 34.0264 21.388 33.9579 21.6 33.7986C21.6756 33.7424 21.7425 33.6754 21.7987 33.5999C22.4042 32.7926 23.1893 32.1374 24.0919 31.6861C24.9944 31.2348 25.9897 30.9999 26.9988 30.9999C28.0078 30.9999 29.0031 31.2348 29.9056 31.6861C30.8082 32.1374 31.5933 32.7926 32.1987 33.5999C32.358 33.812 32.5951 33.9522 32.8578 33.9896C33.1204 34.027 33.3872 33.9585 33.5994 33.7992C33.8115 33.6399 33.9518 33.4029 33.9891 33.1402C34.0265 32.8775 33.958 32.6108 33.7987 32.3986C32.9136 31.2119 31.7332 30.2776 30.375 29.6886ZM15 22.9999C15.5933 22.9999 16.1734 23.1758 16.6667 23.5055C17.1601 23.8351 17.5446 24.3036 17.7716 24.8518C17.9987 25.4 18.0581 26.0032 17.9424 26.5851C17.8266 27.1671 17.5409 27.7016 17.1213 28.1212C16.7018 28.5407 16.1672 28.8265 15.5853 28.9422C15.0033 29.058 14.4001 28.9986 13.8519 28.7715C13.3038 28.5444 12.8352 28.1599 12.5056 27.6666C12.1759 27.1732 12 26.5932 12 25.9999C12 25.2042 12.3161 24.4411 12.8787 23.8785C13.4413 23.3159 14.2044 22.9999 15 22.9999ZM27 22.9999C27.5933 22.9999 28.1734 23.1758 28.6667 23.5055C29.1601 23.8351 29.5446 24.3036 29.7716 24.8518C29.9987 25.4 30.0581 26.0032 29.9424 26.5851C29.8266 27.1671 29.5409 27.7016 29.1213 28.1212C28.7018 28.5407 28.1672 28.8265 27.5853 28.9422C27.0033 29.058 26.4001 28.9986 25.8519 28.7715C25.3038 28.5444 24.8352 28.1599 24.5056 27.6666C24.1759 27.1732 24 26.5932 24 25.9999C24 25.2042 24.3161 24.4411 24.8787 23.8785C25.4413 23.3159 26.2044 22.9999 27 22.9999Z" fill="#BFB2A1"/>
</svg>
