<svg width="42" height="42" viewBox="0 0 42 42" fill="none" xmlns="http://www.w3.org/2000/svg">
<path opacity="0.2" d="M22 18.5C22 19.7856 21.6188 21.0423 20.9046 22.1112C20.1903 23.1801 19.1752 24.0132 17.9874 24.5052C16.7997 24.9972 15.4928 25.1259 14.2319 24.8751C12.971 24.6243 11.8128 24.0052 10.9038 23.0962C9.99477 22.1872 9.3757 21.029 9.1249 19.7681C8.87409 18.5072 9.00282 17.2003 9.49479 16.0126C9.98676 14.8248 10.8199 13.8097 11.8888 13.0954C12.9577 12.3812 14.2144 12 15.5 12C17.2239 12 18.8772 12.6848 20.0962 13.9038C21.3152 15.1228 22 16.7761 22 18.5Z" fill="#BFB2A1"/>
<path d="M19.6563 24.7401C20.9966 23.8478 22.0141 22.548 22.5584 21.0327C23.1028 19.5174 23.145 17.8671 22.679 16.326C22.2129 14.7848 21.2632 13.4346 19.9703 12.4749C18.6775 11.5152 17.1102 10.9971 15.5001 10.9971C13.89 10.9971 12.3226 11.5152 11.0298 12.4749C9.73694 13.4346 8.78726 14.7848 8.32118 16.326C7.85509 17.8671 7.89734 19.5174 8.44168 21.0327C8.98603 22.548 10.0036 23.8478 11.3438 24.7401C8.91943 25.6337 6.84894 27.2872 5.44131 29.4539C5.36733 29.5638 5.31594 29.6874 5.29014 29.8174C5.26433 29.9474 5.26462 30.0812 5.29099 30.2111C5.31736 30.3409 5.36928 30.4643 5.44373 30.5739C5.51818 30.6835 5.61369 30.7773 5.72469 30.8497C5.83569 30.9221 5.95998 30.9717 6.09032 30.9956C6.22067 31.0196 6.35447 31.0174 6.48396 30.9892C6.61344 30.9609 6.73603 30.9073 6.84459 30.8312C6.95314 30.7552 7.04551 30.6584 7.11631 30.5464C8.0243 29.1498 9.26676 28.0023 10.7309 27.2078C12.195 26.4134 13.8343 25.9973 15.5001 25.9973C17.1658 25.9973 18.8052 26.4134 20.2693 27.2078C21.7334 28.0023 22.9758 29.1498 23.8838 30.5464C24.0305 30.7644 24.2571 30.9159 24.5145 30.9681C24.772 31.0204 25.0397 30.9692 25.2598 30.8257C25.4799 30.6822 25.6346 30.4578 25.6906 30.2011C25.7465 29.9444 25.6992 29.676 25.5588 29.4539C24.1512 27.2872 22.0807 25.6337 19.6563 24.7401ZM10.0001 18.5001C10.0001 17.4123 10.3226 16.3489 10.927 15.4445C11.5313 14.54 12.3903 13.8351 13.3953 13.4188C14.4003 13.0025 15.5062 12.8936 16.5731 13.1058C17.64 13.318 18.62 13.8418 19.3892 14.611C20.1583 15.3802 20.6822 16.3602 20.8944 17.4271C21.1066 18.494 20.9977 19.5999 20.5814 20.6049C20.1651 21.6099 19.4602 22.4688 18.5557 23.0732C17.6512 23.6775 16.5879 24.0001 15.5001 24.0001C14.0419 23.9985 12.6439 23.4185 11.6128 22.3874C10.5817 21.3563 10.0017 19.9583 10.0001 18.5001ZM36.2676 30.8376C36.0454 30.9825 35.7749 31.0331 35.5154 30.9785C35.2559 30.9239 35.0287 30.7685 34.8838 30.5464C33.9769 29.149 32.7346 28.0009 31.2702 27.2068C29.8058 26.4127 28.1659 25.9979 26.5001 26.0001C26.2348 26.0001 25.9805 25.8948 25.793 25.7072C25.6054 25.5197 25.5001 25.2653 25.5001 25.0001C25.5001 24.7349 25.6054 24.4805 25.793 24.293C25.9805 24.1055 26.2348 24.0001 26.5001 24.0001C27.31 23.9993 28.1098 23.8197 28.8423 23.474C29.5748 23.1283 30.2219 22.6251 30.7373 22.0003C31.2528 21.3756 31.6239 20.6447 31.8242 19.8598C32.0244 19.075 32.0488 18.2557 31.8957 17.4603C31.7426 16.6649 31.4157 15.9132 30.9383 15.2589C30.461 14.6045 29.845 14.0636 29.1345 13.6749C28.4239 13.2862 27.6362 13.0592 26.8277 13.0102C26.0192 12.9612 25.2099 13.0913 24.4576 13.3914C24.3349 13.4444 24.2028 13.4723 24.0692 13.4734C23.9356 13.4746 23.8031 13.4489 23.6795 13.3979C23.556 13.347 23.4439 13.2718 23.3499 13.1768C23.2559 13.0818 23.1819 12.9689 23.1323 12.8449C23.0827 12.7208 23.0584 12.588 23.0609 12.4544C23.0635 12.3208 23.0928 12.189 23.1471 12.0669C23.2015 11.9448 23.2797 11.8349 23.3773 11.7435C23.4748 11.6522 23.5897 11.5813 23.7151 11.5351C25.4369 10.8484 27.352 10.8237 29.091 11.4657C30.83 12.1078 32.2696 13.3711 33.1321 15.0119C33.9946 16.6527 34.2189 18.5548 33.7617 20.3513C33.3045 22.1477 32.1982 23.7112 30.6563 24.7401C33.0807 25.6337 35.1512 27.2872 36.5588 29.4539C36.7037 29.676 36.7544 29.9466 36.6997 30.206C36.6451 30.4655 36.4897 30.6927 36.2676 30.8376Z" fill="#BFB2A1"/>
</svg>
