<svg width="42" height="42" viewBox="0 0 42 42" fill="none" xmlns="http://www.w3.org/2000/svg">
<path opacity="0.2" d="M13 19V23C13 23.2652 12.8946 23.5196 12.7071 23.7071C12.5196 23.8946 12.2652 24 12 24H8C7.73478 24 7.48043 23.8946 7.29289 23.7071C7.10536 23.5196 7 23.2652 7 23V19C7 18.7348 7.10536 18.4804 7.29289 18.2929C7.48043 18.1054 7.73478 18 8 18H12C12.2652 18 12.5196 18.1054 12.7071 18.2929C12.8946 18.4804 13 18.7348 13 19ZM31 10H25C24.7348 10 24.4804 10.1054 24.2929 10.2929C24.1054 10.4804 24 10.7348 24 11V17C24 17.2652 24.1054 17.5196 24.2929 17.7071C24.4804 17.8946 24.7348 18 25 18H31C31.2652 18 31.5196 17.8946 31.7071 17.7071C31.8946 17.5196 32 17.2652 32 17V11C32 10.7348 31.8946 10.4804 31.7071 10.2929C31.5196 10.1054 31.2652 10 31 10ZM31 24H25C24.7348 24 24.4804 24.1054 24.2929 24.2929C24.1054 24.4804 24 24.7348 24 25V31C24 31.2652 24.1054 31.5196 24.2929 31.7071C24.4804 31.8946 24.7348 32 25 32H31C31.2652 32 31.5196 31.8946 31.7071 31.7071C31.8946 31.5196 32 31.2652 32 31V25C32 24.7348 31.8946 24.4804 31.7071 24.2929C31.5196 24.1054 31.2652 24 31 24Z" fill="#BFB2A1"/>
<path d="M25 19H31C31.5304 19 32.0391 18.7893 32.4142 18.4142C32.7893 18.0391 33 17.5304 33 17V11C33 10.4696 32.7893 9.96086 32.4142 9.58579C32.0391 9.21071 31.5304 9 31 9H25C24.4696 9 23.9609 9.21071 23.5858 9.58579C23.2107 9.96086 23 10.4696 23 11V13H21C20.2044 13 19.4413 13.3161 18.8787 13.8787C18.3161 14.4413 18 15.2044 18 16V20H14V19C14 18.4696 13.7893 17.9609 13.4142 17.5858C13.0391 17.2107 12.5304 17 12 17H8C7.46957 17 6.96086 17.2107 6.58579 17.5858C6.21071 17.9609 6 18.4696 6 19V23C6 23.5304 6.21071 24.0391 6.58579 24.4142C6.96086 24.7893 7.46957 25 8 25H12C12.5304 25 13.0391 24.7893 13.4142 24.4142C13.7893 24.0391 14 23.5304 14 23V22H18V26C18 26.7956 18.3161 27.5587 18.8787 28.1213C19.4413 28.6839 20.2044 29 21 29H23V31C23 31.5304 23.2107 32.0391 23.5858 32.4142C23.9609 32.7893 24.4696 33 25 33H31C31.5304 33 32.0391 32.7893 32.4142 32.4142C32.7893 32.0391 33 31.5304 33 31V25C33 24.4696 32.7893 23.9609 32.4142 23.5858C32.0391 23.2107 31.5304 23 31 23H25C24.4696 23 23.9609 23.2107 23.5858 23.5858C23.2107 23.9609 23 24.4696 23 25V27H21C20.7348 27 20.4804 26.8946 20.2929 26.7071C20.1054 26.5196 20 26.2652 20 26V16C20 15.7348 20.1054 15.4804 20.2929 15.2929C20.4804 15.1054 20.7348 15 21 15H23V17C23 17.5304 23.2107 18.0391 23.5858 18.4142C23.9609 18.7893 24.4696 19 25 19ZM12 23H8V19H12V23ZM25 25H31V31H25V25ZM25 11H31V17H25V11Z" fill="#BFB2A1"/>
</svg>
