<svg width="42" height="42" viewBox="0 0 42 42" fill="none" xmlns="http://www.w3.org/2000/svg">
<path opacity="0.2" d="M35 20C35 21.3261 34.4732 22.5979 33.5355 23.5355C32.5979 24.4732 31.3261 25 30 25H25V15H30C31.3261 15 32.5979 15.5268 33.5355 16.4645C34.4732 17.4021 35 18.6739 35 20Z" fill="#BFB2A1"/>
<path d="M36 19.9999C35.9983 18.4092 35.3657 16.884 34.2408 15.7591C33.116 14.6343 31.5908 14.0016 30 13.9999H25.025C24.6612 13.9787 18.3225 13.5324 12.2863 8.46994C11.9948 8.22513 11.6395 8.06859 11.2621 8.01871C10.8847 7.96883 10.5009 8.02768 10.1559 8.18834C9.81076 8.34901 9.51869 8.60482 9.31395 8.92572C9.1092 9.24662 9.00029 9.61929 9 9.99994V29.9999C9.00005 30.3807 9.10879 30.7535 9.31345 31.0746C9.5181 31.3957 9.81015 31.6517 10.1553 31.8125C10.5004 31.9734 10.8843 32.0323 11.2618 31.9825C11.6393 31.9326 11.9947 31.7761 12.2863 31.5312C17.0075 27.5712 21.9113 26.4362 24 26.1187V30.0837C23.9996 30.4133 24.0806 30.7378 24.2359 31.0285C24.3912 31.3192 24.6159 31.567 24.89 31.7499L26.265 32.6662C26.5308 32.8436 26.8352 32.9547 27.1527 32.9903C27.4703 33.0258 27.7917 32.9848 28.0901 32.8706C28.3885 32.7564 28.6553 32.5723 28.8679 32.3339C29.0806 32.0954 29.2331 31.8094 29.3125 31.4999L30.7838 25.9549C32.2272 25.7629 33.5517 25.0532 34.5112 23.9579C35.4706 22.8626 35.9997 21.4561 36 19.9999ZM11 29.9912V9.99994C16.3513 14.4887 21.8287 15.6249 24 15.9049V24.0899C21.8313 24.3749 16.355 25.5087 11 29.9912ZM27.375 30.9912V31.0049L26 30.0887V25.9999H28.7L27.375 30.9912ZM30 23.9999H26V15.9999H30C31.0609 15.9999 32.0783 16.4214 32.8284 17.1715C33.5786 17.9217 34 18.9391 34 19.9999C34 21.0608 33.5786 22.0782 32.8284 22.8284C32.0783 23.5785 31.0609 23.9999 30 23.9999Z" fill="#BFB2A1"/>
</svg>
