<svg width="42" height="42" viewBox="0 0 42 42" fill="none" xmlns="http://www.w3.org/2000/svg">
<path opacity="0.2" d="M17 35L19 25L11 22L25 7L23 17L31 20L17 35Z" fill="#BFB2A1"/>
<path d="M31.9738 19.7711C31.9359 19.6108 31.8591 19.4624 31.75 19.339C31.641 19.2156 31.5032 19.121 31.3488 19.0636L24.1475 16.3624L25.98 7.19612C26.0215 6.98315 25.9926 6.76246 25.8977 6.56735C25.8028 6.37224 25.6469 6.21331 25.4538 6.11453C25.2606 6.01574 25.0405 5.98248 24.8267 6.01974C24.613 6.05701 24.4172 6.16279 24.2688 6.32112L10.2688 21.3211C10.1551 21.4409 10.0728 21.5871 10.0294 21.7464C9.98591 21.9058 9.98261 22.0734 10.0197 22.2344C10.0569 22.3953 10.1333 22.5446 10.2422 22.6688C10.3511 22.793 10.4891 22.8883 10.6438 22.9461L17.8475 25.6474L16.02 34.8036C15.9785 35.0166 16.0074 35.2373 16.1024 35.4324C16.1973 35.6275 16.3531 35.7864 16.5463 35.8852C16.7395 35.984 16.9596 36.0173 17.1733 35.98C17.3871 35.9427 17.5829 35.837 17.7313 35.6786L31.7313 20.6786C31.8429 20.5588 31.9234 20.4134 31.9657 20.2551C32.008 20.0969 32.0108 19.9307 31.9738 19.7711ZM18.6713 31.7499L19.98 25.2024C20.0269 24.9702 19.9898 24.7289 19.8753 24.5215C19.7608 24.3141 19.5765 24.154 19.355 24.0699L12.75 21.5886L23.3275 10.2561L22.02 16.8036C21.9732 17.0358 22.0103 17.2771 22.1248 17.4845C22.2392 17.6919 22.4236 17.852 22.645 17.9361L29.245 20.4111L18.6713 31.7499Z" fill="#BFB2A1"/>
</svg>
