<svg width="42" height="42" viewBox="0 0 42 42" fill="none" xmlns="http://www.w3.org/2000/svg">
<path opacity="0.2" d="M30 11V18.8875C30 23.85 26.0312 27.9625 21.0688 28C19.8811 28.0091 18.7034 27.783 17.6035 27.3347C16.5036 26.8865 15.5033 26.225 14.6603 25.3884C13.8173 24.5518 13.1482 23.5565 12.6916 22.4601C12.235 21.3637 12 20.1877 12 19V11H30Z" fill="#BFB2A1"/>
<path d="M34 13H31V11C31 10.7348 30.8946 10.4804 30.7071 10.2929C30.5196 10.1054 30.2652 10 30 10H12C11.7348 10 11.4804 10.1054 11.2929 10.2929C11.1054 10.4804 11 10.7348 11 11V13H8C7.46957 13 6.96086 13.2107 6.58579 13.5858C6.21071 13.9609 6 14.4696 6 15V17C6 18.3261 6.52678 19.5979 7.46447 20.5355C7.92876 20.9998 8.47995 21.3681 9.08658 21.6194C9.69321 21.8707 10.3434 22 11 22H11.4563C12.0453 23.8668 13.1685 25.52 14.6869 26.7554C16.2053 27.9908 18.0524 28.7542 20 28.9513V32H17C16.7348 32 16.4804 32.1054 16.2929 32.2929C16.1054 32.4804 16 32.7348 16 33C16 33.2652 16.1054 33.5196 16.2929 33.7071C16.4804 33.8946 16.7348 34 17 34H25C25.2652 34 25.5196 33.8946 25.7071 33.7071C25.8946 33.5196 26 33.2652 26 33C26 32.7348 25.8946 32.4804 25.7071 32.2929C25.5196 32.1054 25.2652 32 25 32H22V28.9475C25.9925 28.5438 29.305 25.7425 30.51 22H31C32.3261 22 33.5979 21.4732 34.5355 20.5355C35.4732 19.5979 36 18.3261 36 17V15C36 14.4696 35.7893 13.9609 35.4142 13.5858C35.0391 13.2107 34.5304 13 34 13ZM11 20C10.2044 20 9.44129 19.6839 8.87868 19.1213C8.31607 18.5587 8 17.7956 8 17V15H11V19C11 19.3333 11.0163 19.6667 11.0487 20H11ZM29 18.8875C29 23.3275 25.375 26.9675 21 27C18.8783 27 16.8434 26.1571 15.3431 24.6569C13.8429 23.1566 13 21.1217 13 19V12H29V18.8875ZM34 17C34 17.7956 33.6839 18.5587 33.1213 19.1213C32.5587 19.6839 31.7956 20 31 20H30.9375C30.9785 19.6306 30.9994 19.2592 31 18.8875V15H34V17Z" fill="#BFB2A1"/>
</svg>
