<svg width="42" height="42" viewBox="0 0 42 42" fill="none" xmlns="http://www.w3.org/2000/svg">
<path opacity="0.2" d="M26 23C26 23.9889 25.7068 24.9556 25.1574 25.7779C24.6079 26.6001 23.8271 27.241 22.9134 27.6194C21.9998 27.9978 20.9945 28.0969 20.0246 27.9039C19.0546 27.711 18.1637 27.2348 17.4645 26.5355C16.7652 25.8363 16.289 24.9454 16.0961 23.9755C15.9031 23.0055 16.0022 22.0002 16.3806 21.0866C16.759 20.173 17.3999 19.3921 18.2222 18.8427C19.0444 18.2932 20.0111 18 21 18C22.3261 18 23.5979 18.5268 24.5355 19.4645C25.4732 20.4021 26 21.6739 26 23ZM13 12C12.2089 12 11.4355 12.2346 10.7777 12.6741C10.1199 13.1136 9.60723 13.7384 9.30448 14.4693C9.00173 15.2002 8.92252 16.0044 9.07686 16.7804C9.2312 17.5563 9.61216 18.269 10.1716 18.8284C10.731 19.3878 11.4437 19.7688 12.2196 19.9231C12.9956 20.0775 13.7998 19.9983 14.5307 19.6955C15.2616 19.3928 15.8864 18.8801 16.3259 18.2223C16.7654 17.5645 17 16.7911 17 16C17 14.9391 16.5786 13.9217 15.8284 13.1716C15.0783 12.4214 14.0609 12 13 12ZM29 12C28.2089 12 27.4355 12.2346 26.7777 12.6741C26.1199 13.1136 25.6072 13.7384 25.3045 14.4693C25.0017 15.2002 24.9225 16.0044 25.0769 16.7804C25.2312 17.5563 25.6122 18.269 26.1716 18.8284C26.731 19.3878 27.4437 19.7688 28.2196 19.9231C28.9956 20.0775 29.7998 19.9983 30.5307 19.6955C31.2616 19.3928 31.8864 18.8801 32.3259 18.2223C32.7654 17.5645 33 16.7911 33 16C33 14.9391 32.5786 13.9217 31.8284 13.1716C31.0783 12.4214 30.0609 12 29 12Z" fill="#BFB2A1"/>
<path d="M35.5999 23.7999C35.4948 23.8787 35.3753 23.936 35.2481 23.9686C35.1209 24.0012 34.9885 24.0084 34.8585 23.9898C34.7285 23.9713 34.6034 23.9273 34.4904 23.8604C34.3774 23.7935 34.2787 23.705 34.1999 23.5999C33.5972 22.7897 32.8126 22.1324 31.9094 21.6808C31.0063 21.2292 30.0097 20.996 28.9999 20.9999C28.7347 20.9999 28.4803 20.8945 28.2928 20.707C28.1052 20.5195 27.9999 20.2651 27.9999 19.9999C27.9999 19.7347 28.1052 19.4803 28.2928 19.2928C28.4803 19.1053 28.7347 18.9999 28.9999 18.9999C29.561 18.9998 30.1108 18.8424 30.5869 18.5456C31.063 18.2487 31.4464 17.8243 31.6933 17.3204C31.9403 16.8166 32.0411 16.2537 31.9841 15.6955C31.9272 15.1373 31.7149 14.6062 31.3713 14.1627C31.0276 13.7191 30.5665 13.3808 30.0403 13.1862C29.514 12.9915 28.9437 12.9484 28.3942 13.0616C27.8446 13.1749 27.3379 13.4399 26.9314 13.8268C26.525 14.2136 26.2352 14.7066 26.0949 15.2499C26.0621 15.3771 26.0045 15.4966 25.9255 15.6016C25.8465 15.7066 25.7475 15.7949 25.6344 15.8617C25.5212 15.9284 25.396 15.9722 25.2659 15.9906C25.1358 16.0089 25.0034 16.0015 24.8761 15.9686C24.7489 15.9358 24.6294 15.8783 24.5244 15.7992C24.4195 15.7202 24.3311 15.6213 24.2644 15.5081C24.1976 15.395 24.1538 15.2697 24.1355 15.1397C24.1171 15.0096 24.1246 14.8771 24.1574 14.7499C24.3521 13.9965 24.7199 13.299 25.2316 12.7128C25.7433 12.1267 26.3848 11.668 27.1049 11.3733C27.8251 11.0787 28.6041 10.9562 29.3799 11.0156C30.1558 11.0749 30.9071 11.3146 31.574 11.7154C32.2409 12.1162 32.8051 12.6672 33.2216 13.3244C33.6381 13.9817 33.8955 14.727 33.9733 15.5012C34.0511 16.2755 33.9471 17.0571 33.6696 17.7841C33.3921 18.511 32.9488 19.1632 32.3749 19.6886C33.7347 20.2774 34.9167 21.2117 35.8036 22.3986C35.8824 22.504 35.9397 22.6238 35.9721 22.7513C36.0045 22.8788 36.0114 23.0114 35.9925 23.1415C35.9736 23.2717 35.9291 23.3969 35.8618 23.5098C35.7944 23.6228 35.7054 23.7214 35.5999 23.7999ZM28.8649 31.4999C28.9347 31.6137 28.981 31.7404 29.0011 31.8724C29.0211 32.0044 29.0146 32.1391 28.9817 32.2686C28.9489 32.398 28.8905 32.5196 28.8099 32.6261C28.7293 32.7326 28.6282 32.8218 28.5126 32.8886C28.397 32.9554 28.2691 32.9984 28.1366 33.015C28.0041 33.0315 27.8696 33.0214 27.7411 32.9852C27.6126 32.949 27.4926 32.8873 27.3883 32.804C27.2839 32.7206 27.1974 32.6172 27.1336 32.4999C26.5036 31.4335 25.6065 30.5498 24.5308 29.9359C23.455 29.322 22.2378 28.9991 20.9993 28.9991C19.7607 28.9991 18.5435 29.322 17.4678 29.9359C16.392 30.5498 15.4949 31.4335 14.8649 32.4999C14.8024 32.6194 14.7163 32.725 14.6119 32.8104C14.5075 32.8958 14.387 32.9592 14.2574 32.9968C14.1279 33.0343 13.9921 33.0453 13.8582 33.0291C13.7243 33.0128 13.5951 32.9696 13.4784 32.9021C13.3616 32.8346 13.2597 32.7442 13.1788 32.6363C13.0979 32.5284 13.0396 32.4053 13.0075 32.2743C12.9754 32.1433 12.9702 32.0072 12.9921 31.8741C13.014 31.741 13.0625 31.6137 13.1349 31.4999C14.1044 29.8341 15.5826 28.5232 17.3524 27.7599C16.3566 26.9974 15.6247 25.9421 15.2596 24.7422C14.8946 23.5423 14.9148 22.2581 15.3173 21.0703C15.7198 19.8824 16.4844 18.8506 17.5037 18.1197C18.523 17.3889 19.7457 16.9959 20.9999 16.9959C22.2541 16.9959 23.4768 17.3889 24.4961 18.1197C25.5153 18.8506 26.28 19.8824 26.6825 21.0703C27.085 22.2581 27.1052 23.5423 26.7401 24.7422C26.3751 25.9421 25.6432 26.9974 24.6474 27.7599C26.4171 28.5232 27.8954 29.8341 28.8649 31.4999ZM20.9999 26.9999C21.791 26.9999 22.5644 26.7653 23.2222 26.3258C23.88 25.8862 24.3927 25.2615 24.6954 24.5306C24.9982 23.7997 25.0774 22.9955 24.923 22.2195C24.7687 21.4436 24.3877 20.7309 23.8283 20.1715C23.2689 19.6121 22.5562 19.2311 21.7803 19.0768C21.0043 18.9224 20.2001 19.0016 19.4692 19.3044C18.7383 19.6071 18.1135 20.1198 17.674 20.7776C17.2345 21.4354 16.9999 22.2088 16.9999 22.9999C16.9999 24.0608 17.4213 25.0782 18.1715 25.8283C18.9216 26.5785 19.939 26.9999 20.9999 26.9999ZM13.9999 19.9999C13.9999 19.7347 13.8945 19.4803 13.707 19.2928C13.5195 19.1053 13.2651 18.9999 12.9999 18.9999C12.4388 18.9998 11.889 18.8424 11.4129 18.5456C10.9367 18.2487 10.5534 17.8243 10.3064 17.3204C10.0594 16.8166 9.9587 16.2537 10.0156 15.6955C10.0726 15.1373 10.2849 14.6062 10.6285 14.1627C10.9721 13.7191 11.4333 13.3808 11.9595 13.1862C12.4858 12.9915 13.0561 12.9484 13.6056 13.0616C14.1551 13.1749 14.6619 13.4399 15.0684 13.8268C15.4748 14.2136 15.7646 14.7066 15.9049 15.2499C15.9712 15.5068 16.1368 15.7269 16.3654 15.8617C16.594 15.9965 16.8667 16.035 17.1236 15.9686C17.3806 15.9023 17.6006 15.7367 17.7354 15.5081C17.8702 15.2796 17.9087 15.0068 17.8424 14.7499C17.6477 13.9965 17.2799 13.299 16.7682 12.7128C16.2564 12.1267 15.615 11.668 14.8948 11.3733C14.1747 11.0787 13.3957 10.9562 12.6198 11.0156C11.844 11.0749 11.0927 11.3146 10.4258 11.7154C9.75887 12.1162 9.1947 12.6672 8.77817 13.3244C8.36164 13.9817 8.10425 14.727 8.02648 15.5012C7.94871 16.2755 8.05271 17.0571 8.3302 17.7841C8.60769 18.511 9.05101 19.1632 9.62489 19.6886C8.26649 20.278 7.08578 21.2122 6.19989 22.3986C6.0406 22.6108 5.97211 22.8776 6.0095 23.1403C6.04689 23.4029 6.18709 23.64 6.39927 23.7993C6.61144 23.9586 6.8782 24.0271 7.14087 23.9897C7.40354 23.9523 7.6406 23.8121 7.79989 23.5999C8.40262 22.7897 9.18716 22.1324 10.0903 21.6808C10.9935 21.2292 11.9901 20.996 12.9999 20.9999C13.2651 20.9999 13.5195 20.8945 13.707 20.707C13.8945 20.5195 13.9999 20.2651 13.9999 19.9999Z" fill="#BFB2A1"/>
</svg>
