<svg width="42" height="42" viewBox="0 0 42 42" fill="none" xmlns="http://www.w3.org/2000/svg">
<path opacity="0.2" d="M25 21C25 21.7911 24.7654 22.5645 24.3259 23.2223C23.8864 23.8801 23.2616 24.3928 22.5307 24.6955C21.7998 24.9983 20.9956 25.0775 20.2196 24.9231C19.4437 24.7688 18.731 24.3878 18.1716 23.8284C17.6122 23.269 17.2312 22.5563 17.0769 21.7804C16.9225 21.0044 17.0017 20.2002 17.3045 19.4693C17.6072 18.7384 18.1199 18.1136 18.7777 17.6741C19.4355 17.2346 20.2089 17 21 17C22.0609 17 23.0783 17.4214 23.8284 18.1716C24.5786 18.9217 25 19.9391 25 21Z" fill="#BFB2A1"/>
<path d="M34 20H32.9575C32.7175 17.1743 31.486 14.5245 29.4808 12.5192C27.4755 10.514 24.8257 9.28247 22 9.0425V8C22 7.73478 21.8946 7.48043 21.7071 7.29289C21.5196 7.10536 21.2652 7 21 7C20.7348 7 20.4804 7.10536 20.2929 7.29289C20.1054 7.48043 20 7.73478 20 8V9.0425C17.1743 9.28247 14.5245 10.514 12.5192 12.5192C10.514 14.5245 9.28247 17.1743 9.0425 20H8C7.73478 20 7.48043 20.1054 7.29289 20.2929C7.10536 20.4804 7 20.7348 7 21C7 21.2652 7.10536 21.5196 7.29289 21.7071C7.48043 21.8946 7.73478 22 8 22H9.0425C9.28247 24.8257 10.514 27.4755 12.5192 29.4808C14.5245 31.486 17.1743 32.7175 20 32.9575V34C20 34.2652 20.1054 34.5196 20.2929 34.7071C20.4804 34.8946 20.7348 35 21 35C21.2652 35 21.5196 34.8946 21.7071 34.7071C21.8946 34.5196 22 34.2652 22 34V32.9575C24.8257 32.7175 27.4755 31.486 29.4808 29.4808C31.486 27.4755 32.7175 24.8257 32.9575 22H34C34.2652 22 34.5196 21.8946 34.7071 21.7071C34.8946 21.5196 35 21.2652 35 21C35 20.7348 34.8946 20.4804 34.7071 20.2929C34.5196 20.1054 34.2652 20 34 20ZM22 30.95V30C22 29.7348 21.8946 29.4804 21.7071 29.2929C21.5196 29.1054 21.2652 29 21 29C20.7348 29 20.4804 29.1054 20.2929 29.2929C20.1054 29.4804 20 29.7348 20 30V30.95C17.7061 30.7159 15.5631 29.6978 13.9327 28.0673C12.3022 26.4369 11.2841 24.2939 11.05 22H12C12.2652 22 12.5196 21.8946 12.7071 21.7071C12.8946 21.5196 13 21.2652 13 21C13 20.7348 12.8946 20.4804 12.7071 20.2929C12.5196 20.1054 12.2652 20 12 20H11.05C11.2841 17.7061 12.3022 15.5631 13.9327 13.9327C15.5631 12.3022 17.7061 11.2841 20 11.05V12C20 12.2652 20.1054 12.5196 20.2929 12.7071C20.4804 12.8946 20.7348 13 21 13C21.2652 13 21.5196 12.8946 21.7071 12.7071C21.8946 12.5196 22 12.2652 22 12V11.05C24.2939 11.2841 26.4369 12.3022 28.0673 13.9327C29.6978 15.5631 30.7159 17.7061 30.95 20H30C29.7348 20 29.4804 20.1054 29.2929 20.2929C29.1054 20.4804 29 20.7348 29 21C29 21.2652 29.1054 21.5196 29.2929 21.7071C29.4804 21.8946 29.7348 22 30 22H30.95C30.7159 24.2939 29.6978 26.4369 28.0673 28.0673C26.4369 29.6978 24.2939 30.7159 22 30.95ZM21 16C20.0111 16 19.0444 16.2932 18.2221 16.8427C17.3999 17.3921 16.759 18.173 16.3806 19.0866C16.0022 20.0002 15.9031 21.0055 16.0961 21.9755C16.289 22.9454 16.7652 23.8363 17.4645 24.5355C18.1637 25.2348 19.0546 25.711 20.0245 25.9039C20.9945 26.0969 21.9998 25.9978 22.9134 25.6194C23.827 25.241 24.6079 24.6001 25.1573 23.7779C25.7068 22.9556 26 21.9889 26 21C26 19.6739 25.4732 18.4021 24.5355 17.4645C23.5979 16.5268 22.3261 16 21 16ZM21 24C20.4067 24 19.8266 23.8241 19.3333 23.4944C18.8399 23.1648 18.4554 22.6962 18.2284 22.1481C18.0013 21.5999 17.9419 20.9967 18.0576 20.4147C18.1734 19.8328 18.4591 19.2982 18.8787 18.8787C19.2982 18.4591 19.8328 18.1734 20.4147 18.0576C20.9967 17.9419 21.5999 18.0013 22.1481 18.2284C22.6962 18.4554 23.1648 18.8399 23.4944 19.3333C23.8241 19.8266 24 20.4067 24 21C24 21.7956 23.6839 22.5587 23.1213 23.1213C22.5587 23.6839 21.7956 24 21 24Z" fill="#BFB2A1"/>
</svg>
